<?xml version="1.0" encoding="UTF-8"?> <!-- Generator: Adobe Illustrator 24.2.0, SVG Export Plug-In . SVG Version: 6.00 Build 0) --> <svg xmlns="http://www.w3.org/2000/svg" xmlns:xlink="http://www.w3.org/1999/xlink" id="Слой_1" x="0px" y="0px" viewBox="0 0 512 512" style="enable-background:new 0 0 512 512;" xml:space="preserve"> <style type="text/css"> .st0{fill:#BFBFBF;stroke:#000000;stroke-miterlimit:10;} </style> <polygon class="st0" points="25.9,135.8 285.9,135.8 424,135.8 424,237.3 352,176 336,166.1 316.2,176 313.2,203.2 391.8,277.5 310.9,277.5 48,280.5 25.9,265.4 21.4,240 "></polygon> <polygon class="st0" points="25.9,80 25.9,49.4 48,22.8 195.7,22.8 389,22.8 416,35.7 428.4,63 428.4,80 416,89.5 25.9,86.5 "></polygon> <g id="Card"> <path d="M480,369.5v-191c0.1-19.1-7.5-37.4-21.1-50.9L432,100.7V56c0-22.1-17.9-40-40-40H56c-22.1,0-40,17.9-40,40v192 c0,22.1,17.9,40,40,40h40v128H40c-4.4,0-8,3.6-8,8v32c0,22.1,17.9,40,40,40h176c22.1,0,40-17.9,40-40V288h32v40 c0,15.5,6.5,30.3,17.9,40.9c-10.5,2.8-17.8,12.2-17.9,23.1v48c0,10.1,6.4,19.1,16,22.5V488c0,4.4,3.6,8,8,8h128c4.4,0,8-3.6,8-8 v-25.5c9.6-3.4,16-12.4,16-22.5v-48C496,381.9,489.6,372.8,480,369.5L480,369.5z M416,128H32V96h384V128z M56,32h336 c13.3,0,24,10.7,24,24v24H32V56C32,42.7,42.7,32,56,32z M32,248V144h384v77.5l-58-54.7c-12.7-12.1-32.6-12.1-45.2,0.1 c-12.4,12.5-12.4,32.8,0,45.3l59.9,59.9H56C42.7,272,32,261.3,32,248L32,248z M48,456v-24h48v24c0,13.3-10.7,24-24,24 S48,469.3,48,456z M272,456c0,13.3-10.7,24-24,24H103.8c5.3-6.9,8.2-15.3,8.2-24V288h160V456z M336,328v-40h56c4.4,0,8-3.6,8-8 c0-2.1-0.8-4.2-2.3-5.7l-73.5-73.5c-6.2-6.3-6.2-16.4,0.1-22.6c6.3-6.2,16.4-6.2,22.6,0.1l71.6,67.5c3.2,3,8.3,2.9,11.3-0.3 c1.4-1.5,2.2-3.4,2.2-5.5V123.3l15.6,15.6c10.5,10.5,16.4,24.7,16.4,39.5V368h-88C353.9,368,336,350.1,336,328L336,328z M352,480 v-16h112v16H352z M480,440c0,4.4-3.6,8-8,8H344c-4.4,0-8-3.6-8-8v-48c0-4.4,3.6-8,8-8h128c4.4,0,8,3.6,8,8V440z"></path> <path d="M448,392c-13.3,0-24,10.7-24,24s10.7,24,24,24s24-10.7,24-24S461.3,392,448,392z M448,424c-4.4,0-8-3.6-8-8s3.6-8,8-8 s8,3.6,8,8S452.4,424,448,424z"></path> <path d="M128,320h32v16h-32V320z"></path> <path d="M176,320h80v16h-80V320z"></path> <path d="M128,352h16v16h-16V352z"></path> <path d="M160,352h96v16h-96V352z"></path> <path d="M128,384h32v16h-32V384z"></path> <path d="M176,384h80v16h-80V384z"></path> <path d="M128,416h16v16h-16V416z"></path> <path d="M160,416h96v16h-96V416z"></path> <path d="M128,448h32v16h-32V448z"></path> <path d="M176,448h80v16h-80V448z"></path> <path d="M64,176h32v16H64V176z"></path> <path d="M112,176h128v16H112V176z"></path> <path d="M64,224h32v16H64V224z"></path> <path d="M112,224h128v16H112V224z"></path> </g> </svg> 