<?xml version="1.0" encoding="UTF-8"?> <!-- Generator: Adobe Illustrator 24.2.0, SVG Export Plug-In . SVG Version: 6.00 Build 0) --> <svg xmlns="http://www.w3.org/2000/svg" xmlns:xlink="http://www.w3.org/1999/xlink" id="Слой_1" x="0px" y="0px" viewBox="0 0 512 512" style="enable-background:new 0 0 512 512;" xml:space="preserve"> <style type="text/css"> .st0{fill:#BFBFBF;stroke:#000000;stroke-miterlimit:10;} .st1{fill:#D7524C;stroke:#000000;stroke-miterlimit:10;} </style> <polygon class="st0" points="77.5,208 92.8,152.4 135.8,91.8 192.7,64 259.4,56 337.8,68.3 391.2,107.7 423.6,173.6 432,217.6 "></polygon> <g id="Meal"> <path d="M492.2,287.2c-8.8-15.2-28.3-20.4-43.5-11.7L304,359.8c-0.1-22-18-39.8-40-39.8H104.1c-0.7,0-1.3,0.1-1.9,0.2l-22.4,5.6 C78.7,313.5,68.4,304,56,304H40c-13.3,0-24,10.7-24,24v144c0,13.3,10.7,24,24,24h16c12.4,0,22.6-9.5,23.8-21.8l22.3,5.5 c0.6,0.2,1.3,0.2,1.9,0.2h109.9c7.1,0,14-1.9,20.1-5.4l246.6-143.7C495.7,321.9,500.9,302.5,492.2,287.2z M64,472c0,4.4-3.6,8-8,8 H40c-4.4,0-8-3.6-8-8V328c0-4.4,3.6-8,8-8h16c4.4,0,8,3.6,8,8V472z M472.5,317.1L226,460.7c-3.7,2.1-7.9,3.2-12.1,3.3H105l-25-6.2 V342.2l25.1-6.2H264c13.2,0,24,10.6,24,23.9c0,4.4-1.2,8.7-3.4,12.4c-1,1.7-2.2,3.3-3.6,4.7c-4.5,4.5-10.6,7-17,7.1h-80v16h80 c13.3,0.1,25.8-6.6,33.1-17.7l159.6-93c7.5-4.4,17.1-1.8,21.5,5.7l0.1,0.1C482.7,302.8,480.1,312.6,472.5,317.1z"></path> <path d="M64.8,251.6c1.4,2.7,4.1,4.4,7.2,4.4h368c3,0,5.8-1.7,7.2-4.4l16-32c2-4,0.4-8.8-3.6-10.7c-1.1-0.6-2.4-0.9-3.6-0.8h-16.4 C435.6,124.7,371,56.9,288,48.8V48c0-17.7-14.3-32-32-32s-32,14.3-32,32v0.8C141,56.9,76.4,124.7,72.4,208H56c-4.4,0-8,3.6-8,8 c0,1.2,0.3,2.5,0.8,3.6L64.8,251.6z M256,32c8.8,0,16,7.2,16,16h-32C240,39.2,247.2,32,256,32z M240,64h32 c80.8,0.1,147.3,63.4,151.6,144H88.4C92.7,127.4,159.2,64.1,240,64z M443.1,224l-8,16H76.9l-8-16H443.1z"></path> <path d="M272,80v16c54.7,0,102.5,37,116.2,90l15.5-4C388.2,121.9,334,80,272,80z"></path> <rect x="240" y="80" width="16" height="16"></rect> <path d="M19.2,96h16c-0.1-3.2,1.1-6.3,3.3-8.7c8.4-10.5,8.4-25.5,0-36c-2.2-2.4-3.4-5.5-3.3-8.7c-0.1-3.2,1.1-6.3,3.3-8.6 c4.1-5.1,6.4-11.4,6.3-18h-16c0.1,3.2-1.1,6.3-3.3,8.6c-4.1,5.1-6.4,11.4-6.3,18c-0.1,6.6,2.2,12.9,6.3,18c4.4,4.9,4.4,12.4,0,17.3 C21.4,83.1,19.1,89.4,19.2,96z"></path> <path d="M67.2,96h16c-0.1-3.2,1.1-6.3,3.3-8.7c8.4-10.5,8.4-25.5,0-36c-2.2-2.4-3.4-5.5-3.3-8.7c-0.1-3.2,1.1-6.3,3.3-8.6 c4.1-5.1,6.4-11.4,6.3-18h-16c0.1,3.2-1.1,6.3-3.3,8.6c-4.1,5.1-6.4,11.4-6.3,18c-0.1,6.6,2.2,12.9,6.3,18c4.4,4.9,4.4,12.4,0,17.3 C69.4,83.1,67.1,89.4,67.2,96z"></path> <path d="M419.2,96h16c-0.1-3.2,1.1-6.3,3.3-8.7c8.4-10.5,8.4-25.5,0-36c-2.2-2.4-3.4-5.5-3.3-8.7c-0.1-3.2,1.1-6.3,3.3-8.6 c4.1-5.1,6.4-11.4,6.3-18h-16c0.1,3.2-1.1,6.3-3.3,8.6c-4.1,5.1-6.4,11.4-6.3,18c-0.1,6.6,2.2,12.9,6.3,18c4.4,4.9,4.4,12.4,0,17.3 C421.4,83.1,419.1,89.4,419.2,96z"></path> <path d="M467.2,96h16c-0.1-3.2,1.1-6.3,3.3-8.7c8.4-10.5,8.4-25.5,0-36c-2.2-2.4-3.4-5.5-3.3-8.7c-0.1-3.2,1.1-6.3,3.3-8.6 c4.1-5.1,6.4-11.4,6.3-18h-16c0.1,3.2-1.1,6.3-3.3,8.6c-4.1,5.1-6.4,11.4-6.3,18c-0.1,6.6,2.2,12.9,6.3,18c4.4,4.9,4.4,12.4,0,17.3 C469.4,83.1,467.1,89.4,467.2,96z"></path> </g> <path class="st1" d="M77.5,217.6"></path> </svg> 