<?xml version="1.0" encoding="UTF-8"?> <!-- Generator: Adobe Illustrator 24.2.0, SVG Export Plug-In . SVG Version: 6.00 Build 0) --> <svg xmlns="http://www.w3.org/2000/svg" xmlns:xlink="http://www.w3.org/1999/xlink" id="Слой_1" x="0px" y="0px" viewBox="0 0 512 512" style="enable-background:new 0 0 512 512;" xml:space="preserve"> <style type="text/css"> .st0{fill:#BFBFBF;} </style> <g> <path class="st0" d="M240,201.7l-88-37.1l-79.1,33.3l-51.5,15.2V256v55.2l20.5,63.3l86.2,90.2l28.3,20.5L192,448l56-56.1l34.1-73.2 V216L240,201.7z M248,311.2L235.9,352L208,385.1l-36.2,33.3l-19.7,25.8L107,392.7L66.9,352l-10.6-40.8v-70.1l30.3-15.2l65.4-25.8 l72,29.6l24,11.4V311.2z"></path> </g> <g id="hand-hands-clean-protect-protection"> <path d="M256,240c0-3.2-1.9-6.1-4.9-7.4l-96-40c-2-0.8-4.2-0.8-6.2,0l-96,40c-3,1.2-4.9,4.2-4.9,7.4v70.9 c-0.1,23.4,9.2,45.8,25.8,62.2l72.6,72.6c3.1,3.1,8.2,3.1,11.3,0l72.6-72.6c16.6-16.5,25.8-38.9,25.8-62.2L256,240L256,240z M240,310.9c0,19.1-7.5,37.4-21.1,50.9L152,428.7l-66.9-66.9C71.5,348.3,64,330,64,310.9v-65.5l88-36.7l88,36.7V310.9z"></path> <path d="M129.4,310.1l-11.3,11.3l28.3,28.3c3.1,3.1,8.2,3.1,11.3,0l67.9-67.9l-11.3-11.3L152,332.7L129.4,310.1z"></path> <path d="M483.2,165.1c-15.3-8.8-34.9-3.6-43.8,11.8L400,245.2V96c0-17.7-14.3-32-31.9-32H368c-5.6,0-11.2,1.6-16,4.5V48 c0-17.7-14.3-32-32-32s-32,14.3-32,32v20.4c-4.8-2.9-10.4-4.4-16-4.4c-17.7,0-32,14.3-32,32v20.4c-4.8-2.9-10.4-4.4-16-4.4 c-17.7,0-32,14.3-32,32v30.5l-37.2-14c-1.8-0.6-3.8-0.6-5.6,0l-128,48c-3.1,1.2-5.2,4.2-5.2,7.5v96c-0.1,31.5,12.6,61.7,35.1,83.7 l95.1,97.9c3.2,3.2,8.3,3.2,11.5,0l0,0l74.2-76.4V488c0,4.4,3.6,8,8,8h160c4.4,0,8-3.6,8-8v-86.1l39.1-78.3 c0.6-1.1,0.9-2.3,0.9-3.6v-29.8l47-81.3C503.7,193.5,498.5,174,483.2,165.1L483.2,165.1z M256,96c0-8.8,7.2-16,16-16 c8.8,0.1,15.9,7.2,16,16v120c0-3.3-2.1-6.3-5.2-7.5l-26.8-10L256,96z M208,144c0-8.8,7.2-16,16-16c8.8,0.1,15.9,7.2,16,16v48.5 l-32-12V144z M152,476.6l-89.4-92.1c0,0-0.1,0-0.1-0.1C43,365.4,32,339.3,32,312v-90.5l120-45l120,45V312 c0.1,27.3-11,53.5-30.6,72.5L152,476.6z M481,200.9L433,284c-0.7,1.2-1,2.6-1,4v30.1l-39.1,78.3c-0.6,1.1-0.9,2.3-0.9,3.6v80H248 v-79.3l4.9-5c22.6-22,35.2-52.2,35.1-83.7v-80h16V48c0-8.8,7.2-16,16-16s16,7.2,16,16v184h16V96c0-8.8,7.2-16,16-16 c8.8,0.1,15.9,7.2,16,16v166.4c-19.4,10.6-56,34.9-56,65.6h16c0-24.7,41.7-49.4,57.8-56.7c1.5-0.7,2.8-1.9,3.6-3.3l48-83.1 c2.1-3.7,5.6-6.4,9.7-7.5c8.6-2.2,17.4,2.9,19.6,11.6c0.3,1.3,0.5,2.6,0.5,4C483.2,195.7,482.5,198.5,481,200.9z"></path> <path d="M464,16h16v16h-16V16z"></path> <path d="M448,32h16v16h-16V32z"></path> <path d="M480,32h16v16h-16V32z"></path> <path d="M464,48h16v16h-16V48z"></path> <path d="M200,16h16v16h-16V16z"></path> <path d="M184,32h16v16h-16V32z"></path> <path d="M216,32h16v16h-16V32z"></path> <path d="M200,48h16v16h-16V48z"></path> <path d="M144,96h16v16h-16V96z"></path> <path d="M128,112h16v16h-16V112z"></path> <path d="M160,112h16v16h-16V112z"></path> <path d="M144,128h16v16h-16V128z"></path> <path d="M432,96h16v16h-16V96z"></path> <path d="M416,112h16v16h-16V112z"></path> <path d="M448,112h16v16h-16V112z"></path> <path d="M432,128h16v16h-16V128z"></path> </g> </svg> 