<?xml version="1.0" encoding="UTF-8"?> <svg xmlns="http://www.w3.org/2000/svg" viewBox="0 0 273 151"> <defs> <style>.cls-1{fill:#231f20;}.cls-2{fill:none;}</style> </defs> <g id="Layer_1" data-name="Layer 1"> <path class="cls-1" d="M8.09,155.84V151a18.77,18.77,0,0,0,3.63,3.24,36.66,36.66,0,0,0,4.41,2.85,30.09,30.09,0,0,0,13.11,3.25c5.45,0,9.61-1.1,12.46-3.37S46,152.14,46,149.09c0-2.86-1.82-5.65-3.83-7.4a21.69,21.69,0,0,0-4.42-2.92A51.53,51.53,0,0,0,33,136.43c-1.24-.58-3.06-1.29-5.33-2.27-6.55-2.66-11.35-5.19-14.27-7.53a12.23,12.23,0,0,1,1.36-19.79c3.9-2.4,8.76-3.63,14.54-3.63a38.13,38.13,0,0,1,10.9,1.62,30.2,30.2,0,0,1,5.84,2.47l.78.52v4.28a17.21,17.21,0,0,0-3.18-2.47,21,21,0,0,0-3.7-2.14A27.29,27.29,0,0,0,29.11,105a21,21,0,0,0-10.58,2.67c-3,1.75-4.54,4.15-4.54,7.33a7.42,7.42,0,0,0,3.31,6.23c2.27,1.62,6.23,3.5,11.88,5.77h.06l.07.07h.06l.07.06h.13l.06.07h.07l.06.06h.13l.06.07H30l.07.06c7.2,2.79,12.07,5.13,14.73,6.88,5,3.31,7.46,7.4,7.46,12.27a13.58,13.58,0,0,1-5.78,11.22c-3.82,2.93-9.6,4.42-17.32,4.42A41.13,41.13,0,0,1,15.29,160a30.14,30.14,0,0,1-6.49-3.5Z" transform="translate(1.5 -59.5)"></path> <path class="cls-1" d="M108.48,154.41c-.32.45-.58.91-2.91,2.72a30,30,0,0,1-3.77,2.34,30.16,30.16,0,0,1-12.52,2.73A26.78,26.78,0,0,1,74.35,158c-8.5-5.51-12.65-14.66-12.65-25.24,0-8.37,2.46-15.38,7.33-21a23.84,23.84,0,0,1,18.88-8.56c7.27,0,13.11,2.59,17.59,7.85s6.88,11.81,7.27,19.79H69.1v2a37.27,37.27,0,0,0,4.67,18.82,17.29,17.29,0,0,0,15.51,8.76,23.5,23.5,0,0,0,12.52-3.57,22,22,0,0,0,3.7-3.24c2.27-2.4,2.66-3.31,3-4ZM105.24,129c-.45-7.4-2.08-13.24-4.93-17.53s-7-6.49-12.4-6.49a15.61,15.61,0,0,0-13,6.49q-5,6.43-5.65,17.53Z" transform="translate(1.5 -59.5)"></path> <path class="cls-1" d="M126.4,161.29V73.16h7v88.13Z" transform="translate(1.5 -59.5)"></path> <path class="cls-1" d="M156.13,161.29V106.13h-9.74v-1.82h9.74V97.69c0-8.24,1.94-14.66,4.73-18.3a19.07,19.07,0,0,1,16-7.46,22.31,22.31,0,0,1,12.2,3.44,18.77,18.77,0,0,0-1.62,2.27,17.37,17.37,0,0,0-1.43-1.1,17.62,17.62,0,0,0-3.76-1.69,15.94,15.94,0,0,0-5.64-1.11c-6.3,0-13.5,4.35-13.5,17.53v13H197v57h-7V106.13H163.14v55.16Z" transform="translate(1.5 -59.5)"></path> <path class="cls-1" d="M257.63,154.41c-.32.45-.58.91-2.92,2.72a29.28,29.28,0,0,1-3.77,2.34,30.13,30.13,0,0,1-12.52,2.73A26.73,26.73,0,0,1,223.5,158c-8.51-5.51-12.66-14.66-12.66-25.24,0-8.37,2.47-15.38,7.33-21a23.86,23.86,0,0,1,18.89-8.56c7.27,0,13.11,2.59,17.58,7.85s6.88,11.81,7.27,19.79H218.24v2a37.37,37.37,0,0,0,4.67,18.82,17.3,17.3,0,0,0,15.51,8.76,23.44,23.44,0,0,0,12.52-3.57,21.66,21.66,0,0,0,3.7-3.24c2.28-2.4,2.67-3.31,3-4ZM254.38,129c-.45-7.4-2.07-13.24-4.93-17.53S242.51,105,237.06,105A15.62,15.62,0,0,0,224,111.51q-5,6.43-5.64,17.53Z" transform="translate(1.5 -59.5)"></path> <path class="cls-1" d="M45,197.71V185.05h1.56v4.86A7.57,7.57,0,0,1,48,186.64a4.39,4.39,0,0,1,3.61-1.85v1.32a4.54,4.54,0,0,0-3.72,1.72,6.71,6.71,0,0,0-1.38,4.35v5.53Z" transform="translate(1.5 -59.5)"></path> <path class="cls-1" d="M63.1,196.18a2.47,2.47,0,0,1-.65.6,6.28,6.28,0,0,1-.84.52,6.7,6.7,0,0,1-2.78.61,5.93,5.93,0,0,1-3.31-.93,6.38,6.38,0,0,1-2.82-5.61,6.83,6.83,0,0,1,1.64-4.66,5.28,5.28,0,0,1,4.19-1.91,4.86,4.86,0,0,1,3.9,1.75,7,7,0,0,1,1.62,4.39h-9.7v.43a8.34,8.34,0,0,0,1,4.19,3.87,3.87,0,0,0,3.45,1.94,5.16,5.16,0,0,0,2.78-.79,4.75,4.75,0,0,0,.82-.72,2.9,2.9,0,0,0,.67-.89Zm-.72-5.64a7.76,7.76,0,0,0-1.1-3.89,3.05,3.05,0,0,0-2.75-1.45,3.47,3.47,0,0,0-2.9,1.45,7,7,0,0,0-1.25,3.89Z" transform="translate(1.5 -59.5)"></path> <path class="cls-1" d="M66.19,196.49v-1.06a4.6,4.6,0,0,0,.81.72,8.57,8.57,0,0,0,1,.63,6.69,6.69,0,0,0,2.91.72,4.35,4.35,0,0,0,2.77-.75,2.2,2.2,0,0,0,1-1.76,2.33,2.33,0,0,0-.85-1.64,5,5,0,0,0-1-.65c-.42-.23-.78-.4-1-.52s-.68-.28-1.19-.5A13.49,13.49,0,0,1,67.37,190a2.72,2.72,0,0,1,.3-4.4,6.12,6.12,0,0,1,3.23-.81,8.71,8.71,0,0,1,2.42.36,6.6,6.6,0,0,1,1.3.55l.18.11v1a4.67,4.67,0,0,0-.71-.55,4.51,4.51,0,0,0-.82-.48,6.12,6.12,0,0,0-2.41-.55,4.66,4.66,0,0,0-2.35.6,1.78,1.78,0,0,0-1,1.63,1.65,1.65,0,0,0,.74,1.38,13.49,13.49,0,0,0,2.64,1.28h0v0H71v0h0l0,0h0a18.77,18.77,0,0,1,3.28,1.53A3.2,3.2,0,0,1,76,194.43a3,3,0,0,1-1.29,2.5,6.28,6.28,0,0,1-3.84,1,9.23,9.23,0,0,1-3.09-.49,6.55,6.55,0,0,1-1.44-.78Z" transform="translate(1.5 -59.5)"></path> <path class="cls-1" d="M79.65,185.45H77.48v-.4h2.17v-3.5l1.55-1.11v4.61h3.66v.4H81.2v7.91c0,.38,0,.68,0,.9l.06.88a2.8,2.8,0,0,0,.17.88,1.75,1.75,0,0,0,1.74,1.4,4.17,4.17,0,0,0,.91-.12l.13,0v.4a3.59,3.59,0,0,1-1,.16,3,3,0,0,1-2.78-1.17,4.19,4.19,0,0,1-.65-1.77,16.35,16.35,0,0,1-.11-2.28Z" transform="translate(1.5 -59.5)"></path> <path class="cls-1" d="M98.09,197.07v.3a1.3,1.3,0,0,1-1,.34c-1.23,0-2-1-2.41-2.6a5,5,0,0,1-7.32,1.9,3.07,3.07,0,0,1-1.13-2.53,3,3,0,0,1,1.09-2.43l.74-.55a8.9,8.9,0,0,1,1-.5l1.08-.46,1.25-.48a11.05,11.05,0,0,0,2.45-1.12,1.56,1.56,0,0,0,.58-1.34c0-1.43-.89-2.4-2.68-2.4a5.07,5.07,0,0,0-2.52.7,4.8,4.8,0,0,0-.81.59,3,3,0,0,0-.69.75v-1.07a2.17,2.17,0,0,1,.66-.47,5.7,5.7,0,0,1,.82-.41,7.77,7.77,0,0,1,2.68-.49,4.52,4.52,0,0,1,3.22,1.08,3.1,3.1,0,0,1,.64,1.06,3.87,3.87,0,0,1,.28,1,7.78,7.78,0,0,1,0,.88v5.23c0,2.15.43,3.23,1.28,3.23a1.56,1.56,0,0,0,.68-.17Zm-3.61-7.49c0-.54,0-.91,0-1.1a2.1,2.1,0,0,1-.87,1,20,20,0,0,1-2.2,1.07,8.87,8.87,0,0,0-2.68,1.65,3.1,3.1,0,0,0-.87,2.3,3,3,0,0,0,.82,2.23,3,3,0,0,0,2.1.79,3.71,3.71,0,0,0,2.39-.86,4.21,4.21,0,0,0,1.41-2.09,10.45,10.45,0,0,1-.09-1.41Z" transform="translate(1.5 -59.5)"></path> <path class="cls-1" d="M99.84,185.05h1.56v8.07a8.55,8.55,0,0,0,.24,2.39,2.42,2.42,0,0,0,2.52,2,4.19,4.19,0,0,0,3.56-2.25,9,9,0,0,0,1.23-4.51v-5.69h1.56v12.66H109v-5a8.17,8.17,0,0,1-1,2.71,4.47,4.47,0,0,1-4,2.44,3.62,3.62,0,0,1-3-1.36,5.43,5.43,0,0,1-1-3.43Z" transform="translate(1.5 -59.5)"></path> <path class="cls-1" d="M114.06,197.71V185.05h1.56v4.86a7.47,7.47,0,0,1,1.5-3.27,4.36,4.36,0,0,1,3.6-1.85v1.32a4.54,4.54,0,0,0-3.72,1.72,6.71,6.71,0,0,0-1.38,4.35v5.53Z" transform="translate(1.5 -59.5)"></path> <path class="cls-1" d="M133.63,197.07v.3a1.3,1.3,0,0,1-1,.34c-1.23,0-2.05-1-2.41-2.6a4.4,4.4,0,0,1-4.38,2.8,4.6,4.6,0,0,1-2.94-.9,3.07,3.07,0,0,1-1.13-2.53,3,3,0,0,1,1.08-2.43l.75-.55a7.83,7.83,0,0,1,1-.5l1.08-.46,1.26-.48a11.29,11.29,0,0,0,2.45-1.12,1.56,1.56,0,0,0,.58-1.34c0-1.43-.9-2.4-2.69-2.4a5.14,5.14,0,0,0-2.52.7,5.24,5.24,0,0,0-.81.59,3.51,3.51,0,0,0-.69.75v-1.07a2.53,2.53,0,0,1,.67-.47,5.23,5.23,0,0,1,.82-.41,7.77,7.77,0,0,1,2.68-.49,4.47,4.47,0,0,1,3.21,1.08,3,3,0,0,1,.65,1.06,3.44,3.44,0,0,1,.27,1,7.61,7.61,0,0,1,.05.88v5.23c0,2.15.43,3.23,1.28,3.23a1.6,1.6,0,0,0,.68-.17ZM130,189.58c0-.54,0-.91,0-1.1a2.16,2.16,0,0,1-.87,1,21,21,0,0,1-2.2,1.07,8.87,8.87,0,0,0-2.68,1.65,3.1,3.1,0,0,0-.87,2.3,3,3,0,0,0,.82,2.23,2.92,2.92,0,0,0,2.09.79,3.72,3.72,0,0,0,2.4-.86,4.27,4.27,0,0,0,1.41-2.09,10.45,10.45,0,0,1-.09-1.41Z" transform="translate(1.5 -59.5)"></path> <path class="cls-1" d="M136.27,197.71V185.05h1.56V190a7.75,7.75,0,0,1,1-2.72,4.52,4.52,0,0,1,4-2.47,3.65,3.65,0,0,1,3,1.37,5.5,5.5,0,0,1,1.05,3.46v8.08h-1.56v-8.08q0-.57,0-1a5.22,5.22,0,0,0-.42-1.93,2.31,2.31,0,0,0-2.32-1.48,4.26,4.26,0,0,0-3.57,2.28,9.47,9.47,0,0,0-1.21,4.53v5.7Z" transform="translate(1.5 -59.5)"></path> <path class="cls-1" d="M151.21,185.45h-2.16v-.4h2.16v-3.5l1.56-1.11v4.61h3.66v.4h-3.66v7.91c0,.38,0,.68,0,.9l.06.88a3.08,3.08,0,0,0,.18.88,1.74,1.74,0,0,0,1.74,1.4,4.17,4.17,0,0,0,.91-.12l.13,0v.4a3.59,3.59,0,0,1-1,.16,3,3,0,0,1-2.78-1.17,3.94,3.94,0,0,1-.65-1.77,16.28,16.28,0,0,1-.12-2.28Z" transform="translate(1.5 -59.5)"></path> <path class="cls-1" d="M181.48,197.71H179.4l-1.63-2a8.73,8.73,0,0,1-6.57,2.41,7.58,7.58,0,0,1-5-1.47,4.69,4.69,0,0,1-1.74-3.78,6.14,6.14,0,0,1,.86-3.14,7.22,7.22,0,0,1,1.11-1.34,19.3,19.3,0,0,1,1.49-1.27c.5-.39,1.15-.84,1.92-1.35l-.45-.58a6.5,6.5,0,0,1-1.67-4,3.26,3.26,0,0,1,1-2.5,3.47,3.47,0,0,1,2.48-.93,3.33,3.33,0,0,1,2.57.93,3.18,3.18,0,0,1,.85,2.18,3.53,3.53,0,0,1-1,2.45,11.34,11.34,0,0,1-2.18,1.79l7.12,8.92a12.55,12.55,0,0,0,1.67-5.68h.35a13.21,13.21,0,0,1-1.76,6Zm-3.95-2.36-7.43-9.29a11.17,11.17,0,0,0-3,3.19,6.56,6.56,0,0,0-.88,3.35,5.12,5.12,0,0,0,1.36,3.71,5.25,5.25,0,0,0,3.84,1.36A8,8,0,0,0,177.53,195.35Zm-8.38-14a7.55,7.55,0,0,0,1.57,2.82l.48.61a4.73,4.73,0,0,0,2.28-4c0-1.66-.75-2.67-2.29-2.67a1.89,1.89,0,0,0-1.55.66,2.43,2.43,0,0,0-.54,1.59A6.67,6.67,0,0,0,169.15,181.39Z" transform="translate(1.5 -59.5)"></path> <path class="cls-1" d="M190.33,197.71V178.13h1.55v9.33a4.64,4.64,0,0,1,4.4-2.66,5.42,5.42,0,0,1,4.25,1.91,7.27,7.27,0,0,1,0,9.32,5.42,5.42,0,0,1-4.25,1.88,4.66,4.66,0,0,1-4.4-2.63v2.43Zm2.74-10.77a8.84,8.84,0,0,0,0,8.86,3.69,3.69,0,0,0,3.21,1.7,3.59,3.59,0,0,0,3.17-1.7,7.75,7.75,0,0,0,1.14-4.43,7.85,7.85,0,0,0-1.15-4.43,3.59,3.59,0,0,0-3.16-1.74A3.68,3.68,0,0,0,193.07,186.94Z" transform="translate(1.5 -59.5)"></path> <path class="cls-1" d="M215.92,197.07v.3a1.29,1.29,0,0,1-1,.34c-1.22,0-2-1-2.41-2.6a5,5,0,0,1-7.32,1.9,3.06,3.06,0,0,1-1.12-2.53,3,3,0,0,1,1.08-2.43c.27-.21.53-.4.75-.55a7.83,7.83,0,0,1,1-.5l1.08-.46,1.25-.48a11.05,11.05,0,0,0,2.45-1.12,1.56,1.56,0,0,0,.58-1.34c0-1.43-.89-2.4-2.68-2.4a5.07,5.07,0,0,0-2.52.7,4.8,4.8,0,0,0-.81.59,3,3,0,0,0-.69.75v-1.07a2.36,2.36,0,0,1,.66-.47,6.27,6.27,0,0,1,.82-.41,7.77,7.77,0,0,1,2.68-.49,4.5,4.5,0,0,1,3.22,1.08,3.11,3.11,0,0,1,.65,1.06,3.78,3.78,0,0,1,.27,1,7.78,7.78,0,0,1,0,.88v5.23c0,2.15.44,3.23,1.29,3.23a1.55,1.55,0,0,0,.67-.17Zm-3.6-7.49c0-.54,0-.91,0-1.1a2.13,2.13,0,0,1-.86,1,21.45,21.45,0,0,1-2.21,1.07,9,9,0,0,0-2.68,1.65,3.09,3.09,0,0,0-.86,2.3,3,3,0,0,0,.82,2.23,2.91,2.91,0,0,0,2.09.79,3.71,3.71,0,0,0,2.39-.86,4.14,4.14,0,0,0,1.41-2.09,10.5,10.5,0,0,1-.08-1.41Z" transform="translate(1.5 -59.5)"></path> <path class="cls-1" d="M218.57,197.71V185.05h1.55v4.86a7.7,7.7,0,0,1,1.5-3.27,4.38,4.38,0,0,1,3.61-1.85v1.32a4.54,4.54,0,0,0-3.72,1.72,6.66,6.66,0,0,0-1.39,4.35v5.53Z" transform="translate(1.5 -59.5)"></path> </g> <g id="Layer_2" data-name="Layer 2"> <rect class="cls-2" width="273" height="151"></rect> </g> </svg> 